Coordinates
version=1
nRows=14
nColumns=24
inDegrees=yes

Units are S.I. units (second, meters, Newtons, ...)
Angles are in degrees.

endheader
time	pelvis_tilt	pelvis_list	pelvis_rotation	pelvis_tx	pelvis_ty	pelvis_tz	hip_flexion_r	hip_adduction_r	hip_rotation_r	knee_angle_r	ankle_angle_r	subtalar_angle_r	mtp_angle_r	hip_flexion_l	hip_adduction_l	hip_rotation_l	knee_angle_l	ankle_angle_l	subtalar_angle_l	mtp_angle_l	lumbar_extension	lumbar_bending	lumbar_rotation
      0.55800000	     -0.14131945	      6.52679257	      4.55181526	     -0.89145253	      0.99259639	      0.24706159	     22.55382541	     -5.21509436	     -5.49346482	      2.02604402	      3.70184340	    -11.23255699	      0.43945155	    -19.06850771	      8.60778519	      8.59412946	     -3.36220841	     10.39636732	    -11.70510809	      0.20833261	     -4.89006644	     -8.26431458	     -3.49345545
      0.56216667	     -0.18654861	      6.47122654	      4.62856394	     -0.88541286	      0.99203133	      0.24711567	     22.66040601	     -5.16227013	     -5.26597472	      1.48659821	      3.83999983	    -11.34135220	      0.61603290	    -19.11803318	      8.51138440	      8.67471291	     -3.89238194	     10.43177555	    -11.68644385	      0.22584685	     -4.80103769	     -8.15841466	     -3.51222118
      0.56633333	     -0.18529622	      6.38852241	      4.67712167	     -0.87926525	      0.99156219	      0.24722371	     22.69657380	     -5.06316911	     -5.03939665	      0.95252801	      3.81988702	    -11.59416104	      4.20038517	    -19.17679181	      8.38112665	      8.49515109	     -4.48680414	     10.46037756	    -11.32270465	      0.85389937	     -4.74020047	     -8.00204620	     -3.50991652
      0.57050000	     -0.17168080	      6.31568547	      4.79231947	     -0.87315380	      0.99119009	      0.24726664	     22.66768734	     -4.99205697	     -4.78979396	      0.45882697	      3.73123570	    -11.90860243	      4.24271266	    -19.24697171	      8.24936807	      8.61682313	     -5.10037219	     10.49447968	    -11.32113435	      0.89047267	     -4.72504392	     -7.87170631	     -3.72391951
      0.57466667	     -0.18123064	      6.22327254	      4.86406389	     -0.86693243	      0.99080415	      0.24735893	     22.66584429	     -4.88275283	     -4.50715655	     -0.06847337	      3.63028027	    -12.22714426	      4.29874969	    -19.27093780	      8.11050831	      8.56848060	     -5.74738264	     10.47885318	    -11.16112802	      0.95240310	     -4.65575668	     -7.71227481	     -3.84615495
      0.57883333	     -0.16921524	      6.12399033	      4.93880967	     -0.86066072	      0.99048886	      0.24746299	     22.62233238	     -4.76186245	     -4.25011146	     -0.59028012	      3.46069554	    -12.54921432	      4.36727301	    -19.28282183	      7.96062320	      8.48078249	     -6.46536911	     10.48362519	    -10.93158413	      1.04142156	     -4.60029945	     -7.53812344	     -3.94786918
      0.58300000	     -0.17606125	      6.01796123	      5.00541238	     -0.85434359	      0.99019013	      0.24758376	     22.58982139	     -4.62814973	     -3.99745295	     -1.11432576	      3.21597230	    -12.85641951	      4.45324067	    -19.24675571	      7.80812396	      8.34105815	     -7.22962907	     10.42947180	    -10.65886852	      1.16769765	     -4.51958569	     -7.36357156	     -4.03492833
      0.58716667	     -0.17326036	      5.90439091	      5.06453408	     -0.84795305	      0.98994705	      0.24773088	     22.53079935	     -4.48008819	     -3.75736870	     -1.62905178	      2.93193774	    -13.15615023	      4.55700799	    -19.20078689	      7.64579468	      8.16522922	     -8.02697617	     10.35808238	    -10.35100458	      1.33802505	     -4.44103175	     -7.17938283	     -4.11033240
      0.59133333	     -0.13525817	      5.80539516	      5.12208148	     -0.84159780	      0.98978589	      0.24790312	     22.42850853	     -4.34159687	     -3.52176125	     -2.14507531	      2.64034695	    -13.46739964	      4.75737559	    -19.14779722	      7.49132470	      7.92988010	     -8.90898059	     10.26255035	     -9.95315575	      1.69733033	     -4.41854044	     -7.02520585	     -4.15622864
      0.59550000	     -0.16601520	      5.68662311	      5.17320994	     -0.83513596	      0.98957855	      0.24807220	     22.39145594	     -4.18418797	     -3.31018306	     -2.65996388	      2.28574681	    -13.75240528	      4.94084202	    -19.00109873	      7.32990001	      7.70425564	     -9.83177148	     10.13179063	     -9.63436453	      2.06475023	     -4.28201429	     -6.83888519	     -4.21913609
      0.59966667	     -0.15431282	      5.54650728	      5.20636485	     -0.82861319	      0.98946028	      0.24825271	     22.30971775	     -3.99996151	     -3.18102646	     -3.18185045	      1.89609967	    -13.93357641	      7.46800890	    -18.88113771	      7.13896223	      7.39201783	    -10.76739290	      9.87419749	     -9.32484206	      7.72454458	     -4.19151549	     -6.61079278	     -4.20572505
      0.60383333	     -0.17817724	      5.40963344	      5.23459932	     -0.82207217	      0.98935422	      0.24845291	     22.25181669	     -3.81650076	     -3.01282771	     -3.68403361	      1.44461961	    -14.16447284	      7.44513391	    -18.70155773	      6.96527045	      7.16386240	    -11.74737634	      9.60240588	     -9.07934152	      7.77783896	     -4.05103585	     -6.39525817	     -4.26881762
      0.60800000	     -0.17148145	      5.28053533	      5.25621481	     -0.81557318	      0.98930918	      0.24872013	     22.15412755	     -3.63314594	     -2.81706155	     -4.17618707	      1.05503520	    -14.46112017	      7.43142719	    -18.47470048	      6.77712436	      6.73554718	    -12.87660089	      9.39576486	     -8.54636357	      7.92565273	     -3.95331139	     -6.20830327	     -4.27595671
      0.61216667	     -0.17941786	      5.13489275	      5.26314038	     -0.80900898	      0.98928871	      0.24899179	     22.07800637	     -3.43358268	     -2.67887968	     -4.68588073	      0.64488769	    -14.65397042	      7.43098095	    -18.22087696	      6.57745753	      6.32543385	    -14.01657956	      9.09663010	     -8.09461633	      8.12581946	     -3.82589462	     -5.98983076	     -4.26229088
